<?xml version="1.0" standalone="no"?>
<!DOCTYPE svg PUBLIC "-//W3C//DTD SVG 20010904//EN"
 "http://www.w3.org/TR/2001/REC-SVG-20010904/DTD/svg10.dtd">
<svg version="1.0" xmlns="http://www.w3.org/2000/svg"
 width="102.000000pt" height="102.000000pt" viewBox="0 0 102.000000 102.000000"
 preserveAspectRatio="xMidYMid meet">
<metadata>
Created by potrace 1.11, written by Peter Selinger 2001-2013
</metadata>
<g transform="translate(0.000000,102.000000) scale(0.100000,-0.100000)"
fill="#000000" stroke="none">
<path d="M395 941 c-87 -24 -157 -66 -219 -131 -74 -77 -111 -154 -131 -269
-3 -19 -10 -42 -15 -52 -14 -25 -12 -35 6 -53 17 -18 32 -20 53 -7 15 9 24 61
11 61 -40 0 13 187 70 248 31 33 57 27 102 -23 23 -25 46 -45 52 -45 6 0 18
-4 26 -10 12 -7 6 -17 -28 -50 -43 -43 -51 -60 -55 -120 -1 -26 2 -35 15 -38
12 -2 19 5 23 22 3 14 7 38 10 52 3 14 26 44 50 67 25 22 45 48 45 57 0 19
-30 50 -49 50 -7 0 -35 23 -63 50 -28 28 -55 50 -60 50 -18 0 11 28 55 53 66
39 136 59 213 62 66 2 71 1 66 -17 -2 -10 -21 -26 -41 -34 -94 -39 -151 -144
-102 -188 17 -16 22 -16 52 -2 19 9 49 26 67 37 l32 21 0 -32 c0 -24 9 -41 36
-65 25 -23 39 -48 49 -85 21 -80 56 -92 107 -38 28 30 30 37 25 86 l-6 53 32
-19 c49 -28 77 -19 77 26 l1 27 14 -27 c8 -15 21 -53 29 -86 12 -51 11 -62 -1
-86 -14 -26 -13 -30 6 -49 17 -18 24 -19 46 -9 27 13 32 37 12 67 -7 11 -14
34 -15 50 -13 140 -129 299 -264 363 -113 54 -218 64 -333 33z m313 -68 c31
-16 78 -48 105 -73 47 -43 48 -47 45 -93 l-3 -49 -24 21 c-29 25 -44 26 -66 4
-14 -13 -16 -27 -11 -66 5 -37 3 -55 -9 -73 -21 -32 -30 -25 -44 33 -8 31 -24
58 -47 79 -19 18 -34 42 -34 54 0 64 -44 77 -106 30 -48 -36 -68 -39 -59 -7
11 33 53 74 101 97 29 13 46 28 50 45 8 33 31 32 102 -2z"/>
<path d="M447 624 c-4 -4 -7 -121 -7 -260 0 -203 -3 -253 -14 -257 -18 -7 -25
-38 -15 -65 6 -17 16 -22 42 -22 18 0 38 5 45 12 17 17 15 53 -3 68 -12 10
-15 56 -17 268 -3 242 -7 279 -31 256z m23 -559 c0 -8 -7 -15 -15 -15 -16 0
-20 12 -8 23 11 12 23 8 23 -8z"/>
<path d="M529 598 c-1 -29 -1 -510 0 -520 1 -5 26 -8 56 -8 30 0 55 -4 55 -8
0 -16 44 -30 67 -21 12 4 25 20 29 34 12 49 -55 88 -86 50 -7 -8 -29 -15 -49
-15 l-36 0 0 252 c0 233 -1 253 -17 256 -13 2 -18 -3 -19 -20z m169 -509 c-2
-6 -8 -10 -13 -10 -5 0 -11 4 -13 10 -2 6 4 11 13 11 9 0 15 -5 13 -11z"/>
<path d="M208 598 c-7 -17 -2 -107 5 -115 4 -3 12 -3 20 0 11 4 16 74 8 120
-2 12 -29 8 -33 -5z"/>
<path d="M109 593 c-6 -41 -4 -81 4 -97 9 -18 11 -18 21 -3 11 13 13 43 7 95
-1 13 -30 17 -32 5z"/>
<path d="M829 584 c-13 -16 6 -28 48 -30 35 -1 63 19 43 31 -21 13 -80 12 -91
-1z"/>
<path d="M357 554 c-4 -4 -7 -62 -7 -130 l0 -122 -56 2 c-31 1 -58 -2 -61 -7
-3 -5 -5 -25 -5 -44 0 -20 -6 -43 -14 -50 -44 -45 21 -116 69 -75 21 19 23 70
2 78 -8 4 -15 17 -15 30 0 21 5 23 58 26 l57 3 0 144 c0 135 -6 167 -28 145z
m-92 -383 c7 -12 -12 -24 -25 -16 -11 7 -4 25 10 25 5 0 11 -4 15 -9z"/>
<path d="M159 543 c-12 -79 3 -131 30 -100 9 12 9 31 2 100 -1 4 -8 7 -16 7
-8 0 -16 -3 -16 -7z"/>
<path d="M617 543 c-11 -10 -8 -241 3 -248 5 -3 57 -6 115 -6 91 0 109 -3 125
-19 22 -22 59 -19 78 7 19 27 14 51 -14 70 -25 16 -28 16 -56 0 -22 -13 -54
-17 -125 -17 l-94 0 1 58 c3 124 0 162 -13 162 -8 0 -17 -3 -20 -7z m293 -239
c0 -9 -5 -14 -12 -12 -18 6 -21 28 -4 28 9 0 16 -7 16 -16z"/>
<path d="M800 520 c0 -18 7 -20 59 -20 41 0 60 4 64 14 9 22 -2 26 -65 26 -51
0 -58 -2 -58 -20z"/>
<path d="M753 472 c-9 -21 4 -26 83 -27 63 -2 77 1 85 17 11 21 15 20 -85 22
-56 1 -80 -2 -83 -12z"/>
</g>
</svg>
